<?xml version="1.0" encoding="UTF-8"?>
<svg id="SVGDoc" width="102" height="116" xmlns="http://www.w3.org/2000/svg" version="1.1" xmlns:xlink="http://www.w3.org/1999/xlink" xmlns:avocode="https://avocode.com/" viewBox="0 0 102 116"><defs></defs><desc>Generated with Avocode.</desc><g><g><title>Фигура 3</title><path d="M0.75437,29.00224v0l50.22113,-28.99845v0l50.22121,28.99845v0v57.99479v0l-50.22121,28.99845v0l-50.22113,-28.99845v0z" fill="#fc635e" fill-opacity="1"></path></g><g><title>Фигура 3 копия</title><path d="M5.77643,32.00184v0l45.19907,-25.99844v0l45.19915,25.99844v0v51.99561v0l-45.19915,25.99844v0l-45.19907,-25.99844v0z" fill="#ffffff" fill-opacity="1"></path></g><g><title>Forma 1</title><path d="M57.60062,75.96524c-0.52827,0.0711 -5.50789,0.00592 -5.87597,0c-0.36725,0.00592 -5.34808,0.0711 -5.87612,0c-0.54817,-0.07491 0,-0.51333 0.69439,-1.02455c0.69484,-0.51079 0.76747,-1.27931 0.76747,-1.27931l0.26135,-1.66526h8.30521l0.26038,1.66611c0,0 0.07405,0.76767 0.76904,1.27889c0.69342,0.51249 1.24158,0.95049 0.69424,1.02413zM42.36913,61.62915c2.21888,-0.01693 2.49503,-0.55227 3.21826,-2.78038c1.33396,-3.51631 7.34083,0.92087 3.61811,2.46087c-3.72265,1.54127 -9.05526,0.33686 -6.83637,0.31951zM65.03442,42.55204l-13.3824,14.56503c-1.12375,1.39527 -0.86435,1.33263 -1.94086,0.46509c-1.07659,-0.86712 -1.08222,-0.60093 0.04168,-1.99535l11.38334,-16.1774c1.12375,-1.39527 2.90682,-1.82269 3.984,-0.95472c1.07636,0.86755 1.03753,2.70166 -0.08577,4.09735zM63.93771,38.64427c0,0 -1.63429,-0.24884 -2.46559,1.10919c0.55448,0.44393 0.72128,0.63775 0.72128,0.63775c0,0 0.19421,-0.83157 1.74432,-1.74694zM71.77173,45.52539v23.26207c0,0.88574 -0.71812,1.60432 -1.6038,1.60432h-36.88658c-0.88568,0 -1.60372,-0.71858 -1.60372,-1.60432v-23.26207c0,-0.88574 0.71805,-1.60432 1.60372,-1.60432h23.0212l-1.69415,2.40628h-20.52474v19.25147h35.28278v-19.25147h-6.41505l2.21062,-2.40628h5.00591c0.88568,0 1.6038,0.71858 1.6038,1.60432z" fill="#fc635e" fill-opacity="1"></path></g></g></svg>