<?xml version="1.0" encoding="UTF-8"?>
<svg id="SVGDoc" width="37" height="37" xmlns="http://www.w3.org/2000/svg" version="1.1" xmlns:xlink="http://www.w3.org/1999/xlink" xmlns:avocode="https://avocode.com/" viewBox="0 0 37 37"><defs></defs><desc>Generated with Avocode.</desc><g><g><title>Forma 1</title><path d="M36.99213,18.50629c0,10.22011 -8.28163,18.50623 -18.49608,18.50623c-10.21445,0 -18.49608,-8.28612 -18.49608,-18.50623c0,-10.22011 8.28163,-18.50665 18.49608,-18.50665c10.21445,0 18.49608,8.284 18.49608,18.50665zM13.87202,11.27731h-4.62402v16.19306h4.62402zM13.87202,8.11436c0,-1.1951 -0.97084,-2.16759 -2.16864,-2.16971c-1.19555,0 -2.16639,0.9725 -2.16639,2.16971c0,1.19848 0.96851,2.16971 2.16639,2.16971c1.1978,0 2.16864,-0.97123 2.16864,-2.16971zM30.0561,17.59897c0,-5.42153 -3.12491,-6.31954 -4.62402,-6.31954c-2.31201,0 -3.96252,1.03894 -4.62402,1.54465v-1.54677h-4.62402v16.19306h4.62402v-10.01232c0,0 0.46052,-1.99366 2.84929,-1.99366c1.44068,0 1.77473,0.82099 1.77473,1.99366v10.01232h4.62402z" fill="#565656" fill-opacity="1"></path></g></g></svg>