<?xml version="1.0" encoding="UTF-8"?>
<svg id="SVGDoc" width="37" height="37" xmlns="http://www.w3.org/2000/svg" version="1.1" xmlns:xlink="http://www.w3.org/1999/xlink" xmlns:avocode="https://avocode.com/" viewBox="0 0 37 37"><defs></defs><desc>Generated with Avocode.</desc><g><g><title>Forma 1</title><path d="M36.99991,18.49952c0,10.21757 -8.28238,18.5003 -18.49939,18.5003c-10.21791,0 -18.49939,-8.28273 -18.49939,-18.5003c0,-10.21757 8.28148,-18.49988 18.49939,-18.49988c10.21701,0 18.49939,8.28231 18.49939,18.49988zM27.84244,13.2697c-0.65376,0.28989 -1.35604,0.48498 -2.09301,0.57343c0.75207,-0.4507 1.32938,-1.16505 1.60185,-2.01567c-0.70378,0.41727 -1.48364,0.72027 -2.31396,0.88405c-0.66465,-0.708 -1.61154,-1.15066 -2.65943,-1.15066c-2.01205,0 -3.64327,1.63141 -3.64327,3.64369c0,0.28523 0.03169,0.56369 0.09418,0.8303c-3.02796,-0.15235 -5.71322,-1.60263 -7.50981,-3.80704c-0.31385,0.53872 -0.49304,1.16378 -0.49304,1.83158c0,1.26408 0.64287,2.37919 1.6207,3.03345c-0.59691,-0.01989 -1.15927,-0.18324 -1.64984,-0.4562c-0.00098,0.01481 -0.00098,0.03005 -0.00098,0.04528c0,1.76598 1.25653,3.23785 2.92296,3.57302c-0.30566,0.08379 -0.62778,0.12823 -0.95958,0.12823c-0.23469,0 -0.46293,-0.02328 -0.6856,-0.06559c0.46353,1.44774 1.80943,2.50065 3.40392,2.52985c-1.24729,0.97842 -2.81827,1.56031 -4.52549,1.56031c-0.29447,0 -0.58429,-0.01693 -0.86863,-0.05163c1.61199,1.03428 3.52716,1.63818 5.58435,1.63818c6.70149,0 10.36661,-5.55272 10.36661,-10.3678c0,-0.15785 -0.00263,-0.31528 -0.01014,-0.47144c0.71204,-0.51333 1.33013,-1.15532 1.81822,-1.88532z" fill="#565656" fill-opacity="1"></path></g></g></svg>