<?xml version="1.0" encoding="UTF-8"?>
<svg id="SVGDoc" width="101" height="116" xmlns="http://www.w3.org/2000/svg" version="1.1" xmlns:xlink="http://www.w3.org/1999/xlink" xmlns:avocode="https://avocode.com/" viewBox="0 0 101 116"><defs></defs><desc>Generated with Avocode.</desc><g><g><title>Фигура 3</title><path d="M0.73549,29.00224v0l50.07566,-28.99845v0l50.07574,28.99845v0v57.99479v0l-50.07574,28.99845v0l-50.07566,-28.99845v0z" fill="#fe8682" fill-opacity="1"></path></g><g><title>Фигура 3 копия</title><path d="M5.74306,32.00184v0l45.0681,-25.99844v0l45.06817,25.99844v0v51.99561v0l-45.06817,25.99844v0l-45.0681,-25.99844v0z" fill="#fc635e" fill-opacity="1"></path></g><g><title>Forma 1</title><path d="M42.17084,51.16317l-0.06023,12.6632c0.00188,1.06052 -1.34042,2.92257 -1.34042,2.92257c-0.99232,2.95727 1.50008,4.0106 -0.24318,5.81679c2.31682,4.75965 -2.3401,5.4338 -2.3401,5.4338c-1.59554,0 -1.3459,-1.59078 -1.3459,-1.59078l-0.01577,-9.91583c0.13548,-2.51419 -1.43317,-2.57217 -1.43317,-2.57217c-3.78911,0.0055 -3.95051,-4.05292 -3.95622,-4.54171c-0.8669,-0.59332 -1.43873,-1.59036 -1.43873,-2.71986c0,-1.12739 0.56807,-2.12062 1.43129,-2.71224v-0.10961c-0.00744,-3.98521 4.10845,-4.17226 4.10845,-4.17226l5.20629,-0.00931c1.68303,-0.00381 1.43152,1.5036 1.42769,1.50741zM67.00274,56.18012c0.00383,1.72493 -0.97272,3.21373 -2.38726,3.97547l0.02223,11.54978c0.07796,1.42912 -1.02484,0.05967 -1.02484,0.05967c0,0 -4.77851,-8.83669 -18.75383,-8.81045c0,0 -1.32082,0.00169 -1.32082,-1.25815l-0.02148,-10.93107c0,0 -0.23574,-1.25985 1.23926,-1.26238c0,0 12.50408,0.73551 18.54873,-8.69238c0,0 1.2735,-1.68346 1.27733,-0.17055l0.01863,11.57348c1.41815,0.76132 2.40206,2.23784 2.40206,3.96659zM63.04104,43.32902c-3.97649,6.17989 -12.19684,7.33436 -12.19684,7.33436c10.6523,-0.10876 12.19684,-7.33436 12.19684,-7.33436zM64.97191,53.18011c1.58165,2.32037 1.1583,4.28906 1.1583,4.28906c0.96551,-3.05207 -1.1583,-4.28906 -1.1583,-4.28906z" fill="#ffffff" fill-opacity="1"></path></g></g></svg>