<?xml version="1.0" encoding="UTF-8"?>
<svg id="SVGDoc" width="101" height="116" xmlns="http://www.w3.org/2000/svg" version="1.1" xmlns:xlink="http://www.w3.org/1999/xlink" xmlns:avocode="https://avocode.com/" viewBox="0 0 101 116"><defs></defs><desc>Generated with Avocode.</desc><g><g><title>Группа 3</title><g><title>Фигура 3</title><path d="M0.14929,29.00224v0l50.1033,-28.99845v0l50.1033,28.99845v0v57.99479v0l-50.1033,28.99845v0l-50.1033,-28.99845v0z" fill="#fe8682" fill-opacity="1"></path></g><g><title>Фигура 3 копия</title><path d="M5.15963,32.00184v0l45.09295,-25.99844v0l45.09295,25.99844v0v51.99561v0l-45.09295,25.99844v0l-45.09295,-25.99844v0z" fill="#fc635e" fill-opacity="1"></path></g></g><g><title>Forma 1</title><path d="M58.52724,61.61265c0.54892,3.04784 0.9411,9.6907 -4.98984,13.20574c-0.7924,0.46932 -1.37249,0.0237 -1.35777,-0.8849c0.05971,-4.00679 -1.42761,-13.95775 -17.74709,-13.65686c-0.92435,0.0165 -1.48153,-0.65002 -1.12082,-1.4871c1.14538,-2.65596 4.31993,-7.77109 11.73489,-7.5231c0.9227,0.03089 2.00717,-0.51714 2.49736,-1.28735c1.28304,-2.01905 4.07195,-5.76177 8.4802,-8.43551c2.72034,-1.69743 5.22018,-2.4177 6.77892,-2.72325c0.90678,-0.17647 1.67958,-0.25942 1.71142,-0.30639c0.01885,-0.02708 0.03845,-0.05502 0.05963,-0.08295c0.21404,-0.26915 0.46563,-0.42996 0.56371,-0.35929l0.07022,0.05205c0.03928,0.02793 0.31047,-0.02328 0.60449,-0.11469c0.29583,-0.09183 0.48373,0.05121 0.42162,0.31866c-0.06046,0.26746 -0.08494,0.5036 -0.0531,0.5273c0.03184,0.02412 0.05798,0.04274 0.05798,0.04274c0.09478,0.07406 0.0024,0.3521 -0.21569,0.62167c-0.02779,0.03682 -0.05723,0.07152 -0.08569,0.10411c-0.05159,0.05544 0.02035,0.82438 0.06361,1.73171c0.0531,1.13331 0.01232,2.5637 -0.2573,4.215c-0.02448,0.15785 -0.05062,0.31147 -0.07683,0.46086c-0.02283,0.11849 -0.03995,0.22768 -0.06534,0.34617c-0.10777,0.5565 -0.22538,1.04952 -0.33578,1.46382c-0.21479,0.80195 -0.68861,2.13205 -1.03746,2.97293c-1.02529,2.46722 -2.59379,5.16253 -4.97264,7.95814c-0.59308,0.697 -0.89048,1.94626 -0.72871,2.84047zM57.79687,53.77596c0.89536,-1.5108 0.34149,-3.45833 -1.23032,-4.34535c-1.37737,-0.77698 -3.07737,-0.49175 -4.08224,0.59966c-0.14127,0.15362 -0.26879,0.32036 -0.37821,0.50868c-0.89529,1.50868 -0.34472,3.45452 1.23032,4.34492c1.37324,0.77868 3.07332,0.49175 4.08141,-0.59966c0.13729,-0.15193 0.26796,-0.32036 0.37904,-0.50825zM42.10359,75.37235c0.7589,-1.81804 2.39845,-4.82821 5.46772,-6.74824c0.77978,-0.4871 1.26096,-0.07025 0.91008,0.76979c-0.79615,1.90352 -2.49,5.09397 -5.4171,6.82399c-0.79247,0.46847 -1.3112,-0.00381 -0.9607,-0.84554zM36.22446,75.96651c0.91624,-2.46044 3.2082,-7.23364 7.90139,-10.00217c0.79293,-0.46678 1.27891,-0.05502 0.95672,0.79645c-0.97174,2.57386 -3.37523,7.66572 -7.84424,10.08892c-0.80877,0.43758 -1.3308,-0.03047 -1.01388,-0.8832zM35.22824,70.0782c0.7589,-1.81931 2.39943,-4.82694 5.46696,-6.74527c0.77933,-0.4871 1.26134,-0.07025 0.91001,0.76979c-0.79646,1.90268 -2.48955,5.09186 -5.41665,6.82018c-0.79202,0.46721 -1.31158,-0.00508 -0.96033,-0.84469z" fill="#ffffff" fill-opacity="1"></path></g></g></svg>