<?xml version="1.0" encoding="UTF-8"?>
<svg id="SVGDoc" width="37" height="37" xmlns="http://www.w3.org/2000/svg" version="1.1" xmlns:xlink="http://www.w3.org/1999/xlink" xmlns:avocode="https://avocode.com/" viewBox="0 0 37 37"><defs></defs><desc>Generated with Avocode.</desc><g><g><title>Forma 1</title><path d="M36.99213,18.50629c0,10.22011 -8.28163,18.50623 -18.49608,18.50623c-10.21445,0 -18.49608,-8.28612 -18.49608,-18.50623c0,-10.22011 8.28163,-18.50665 18.49608,-18.50665c10.21445,0 18.49608,8.284 18.49608,18.50665zM23.68236,14.67809h-3.44094l0.00436,-1.91579c0,-0.99704 0.07007,-1.53154 1.50166,-1.53154h1.91457v-3.82778h-3.0616c-3.67466,0 -4.52016,1.89844 -4.52016,5.02161l0.00436,2.2535l-2.77486,0.00212v3.82609h2.77486v11.10331h4.15907l0.0021,-11.10331l3.03246,-0.00254z" fill="#565656" fill-opacity="1"></path></g></g></svg>