<?xml version="1.0" encoding="UTF-8"?>
<svg id="SVGDoc" width="101" height="116" xmlns="http://www.w3.org/2000/svg" version="1.1" xmlns:xlink="http://www.w3.org/1999/xlink" xmlns:avocode="https://avocode.com/" viewBox="0 0 101 116"><defs></defs><desc>Generated with Avocode.</desc><g><g><title>Фигура 3</title><path d="M0.39817,29.00224v0l50.18426,-28.99845v0l50.18433,28.99845v0v57.99479v0l-50.18433,28.99845v0l-50.18426,-28.99845v0z" fill="#fe8682" fill-opacity="1"></path></g><g><title>Фигура 3 копия</title><path d="M5.41662,32.00184v0l45.1658,-25.99844v0l45.16588,25.99844v0v51.99561v0l-45.16588,25.99844v0l-45.1658,-25.99844v0z" fill="#fc635e" fill-opacity="1"></path></g><g><title>Forma 1</title><path d="M68.99995,42.89355v29.21174c0,2.13882 -1.75153,3.89422 -3.89028,3.89422h-29.21432c-2.14213,0 -3.89538,-1.7554 -3.89538,-3.89422v-29.21174c0,-2.14432 1.75325,-3.89422 3.89538,-3.89422h29.21432c2.13875,0 3.89028,1.7499 3.89028,3.89422zM36.22483,63.74512h28.54937v-19.47534h-28.54937zM66.3261,69.22039h-19.93158c-0.34832,-1.46975 -1.6611,-2.56751 -3.23817,-2.56751c-1.57691,0 -2.88969,1.09776 -3.23824,2.56751h-5.24181v1.54169h5.24534c0.34832,1.46594 1.65953,2.55989 3.23471,2.55989c1.57534,0 2.88631,-1.09395 3.23486,-2.55989h19.93489zM53.90681,47.0929h3.98152v13.36105h-3.98152zM42.92061,52.23088h3.98333v8.22306h-3.98333zM48.41371,50.04805h3.984v10.40589h-3.984z" fill="#ffffff" fill-opacity="1"></path></g></g></svg>