<?xml version="1.0" encoding="UTF-8"?>
<svg id="SVGDoc" width="31" height="31" xmlns="http://www.w3.org/2000/svg" version="1.1" xmlns:xlink="http://www.w3.org/1999/xlink" xmlns:avocode="https://avocode.com/" viewBox="0 0 31 31"><defs></defs><desc>Generated with Avocode.</desc><g><g><title>Фигура 11</title><path d="M15.50431,30.9994c-8.54652,0 -15.49982,-6.95306 -15.49982,-15.49902c0,-8.54681 6.95331,-15.49987 15.49982,-15.49987c8.54967,0 15.50538,6.95306 15.50538,15.49987c0,8.54596 -6.95571,15.49902 -15.50538,15.49902zM15.50431,1.42244c-7.76245,0 -14.07754,6.31531 -14.07754,14.07794c0,7.76221 6.31509,14.07667 14.07754,14.07667c7.76553,0 14.0831,-6.31446 14.0831,-14.07667c0,-7.76263 -6.31757,-14.07794 -14.0831,-14.07794zM9.23541,25.64431l6.06823,-10.1998l-6.06823,-9.88283l17.39757,10.03983z" fill="#fc635e" fill-opacity="1"></path></g></g></svg>